<svg width="35" height="34" viewBox="0 0 35 34" fill="none" xmlns="http://www.w3.org/2000/svg">
<g clip-path="url(#clip0_1_113)">
<path d="M17.7305 10.6243C21.2829 10.6566 24.0866 13.5274 24.0364 17.0786C23.9859 20.631 21.0905 23.4334 17.5522 23.3548C14.0541 23.2773 11.3109 20.4684 11.32 16.974C11.3291 13.4242 14.187 10.592 17.7305 10.6243Z" fill="#C74AE3"/>
<path d="M25.993 30.5784C20.4436 35.0474 10.5272 33.4481 5.39088 27.4339C-0.259216 20.8183 0.400553 10.8929 6.88066 5.01558C13.2819 -0.789397 23.1853 -0.469266 29.2227 5.73846C35.0832 11.7642 35.3428 21.7618 29.8578 27.4042C28.5772 26.0629 27.2954 24.7192 25.9517 23.3121C28.0312 20.4052 28.6755 17.0786 27.4324 13.5068C25.5761 8.17431 19.6963 5.36025 14.334 7.17778C9.03505 8.97336 6.13456 14.6777 7.78933 20.0476C9.46226 25.477 15.137 28.5608 20.5831 26.8879C21.6673 26.5549 22.269 26.7497 22.9699 27.5565C23.8967 28.6253 24.9694 29.5677 25.993 30.5784ZM-25.7587 10.6489C-25.7587 9.36061 -25.5121 8.14978 -25.0203 7.02029C-24.5285 5.89079 -23.8586 4.90198 -23.0105 4.05519C-22.1624 3.20838 -21.1749 2.53843 -20.0454 2.04661C-18.9159 1.5548 -17.7063 1.30824 -16.4168 1.30824H-2.12174V7.54308H-16.4168C-16.8518 7.54308 -17.2571 7.62312 -17.634 7.7819C-18.011 7.94197 -18.3401 8.16269 -18.6229 8.44411C-18.9055 8.72679 -19.1263 9.05597 -19.285 9.4329C-19.4451 9.80984 -19.5239 10.2152 -19.5239 10.6502C-19.5239 11.0852 -19.4451 11.4944 -19.285 11.8778C-19.1263 12.2612 -18.9042 12.5942 -18.6229 12.8769C-18.3401 13.1596 -18.011 13.3803 -17.634 13.5391C-17.2571 13.6992 -16.8518 13.7779 -16.4168 13.7779H-10.1819C-8.89236 13.7779 -7.68025 14.0206 -6.54301 14.506C-5.40567 14.9913 -4.4143 15.6574 -3.56634 16.5042C-2.71818 17.351 -2.05336 18.3437 -1.56807 19.4809C-1.08277 20.6182 -0.83992 21.8316 -0.83992 23.1199C-0.83992 24.4094 -1.08277 25.619 -1.56807 26.7485C-2.05336 27.878 -2.71959 28.8668 -3.56634 29.7135C-4.41309 30.5603 -5.40567 31.2303 -6.54301 31.7235C-7.68025 32.2165 -8.89365 32.4617 -10.1819 32.4617H-24.0212V26.2269H-10.1819C-9.74692 26.2269 -9.34287 26.1468 -8.96465 25.9881C-8.58773 25.8293 -8.25855 25.6073 -7.97587 25.3259C-7.69316 25.0445 -7.47243 24.7141 -7.31365 24.3371C-7.15487 23.9602 -7.07484 23.5549 -7.07484 23.1199C-7.07484 22.6848 -7.15487 22.2796 -7.31365 21.9026C-7.47373 21.5256 -7.69445 21.1964 -7.97587 20.9138C-8.25855 20.6311 -8.58773 20.4104 -8.96465 20.2516C-9.34158 20.0928 -9.74692 20.0128 -10.1819 20.0128H-16.4168C-17.7063 20.0128 -18.9159 19.7662 -20.0454 19.2744C-21.1749 18.7826 -22.1637 18.1126 -23.0105 17.2645C-23.8573 16.4177 -24.5285 15.4251 -25.0203 14.2891C-25.5121 13.1519 -25.7587 11.9384 -25.7587 10.6489ZM59.6675 32.4617H37.8548V1.30695H44.0896V26.2269H59.6663L59.6675 32.4617ZM60.4499 10.6489C60.4499 9.36061 60.6964 8.14978 61.1881 7.02029C61.6801 5.89079 62.35 4.90198 63.1981 4.05519C64.0461 3.20838 65.0336 2.53843 66.1632 2.04532C67.2927 1.55351 68.5023 1.30695 69.7918 1.30695H84.0867V7.54179H69.7918C69.3567 7.54179 68.9515 7.62182 68.5745 7.78061C68.1975 7.94068 67.8683 8.1614 67.5858 8.44282C67.303 8.7255 67.0823 9.05468 66.9236 9.4316C66.7634 9.80855 66.6848 10.2139 66.6848 10.6489C66.6848 11.0839 66.7634 11.4931 66.9236 11.8765C67.0823 12.2599 67.3044 12.5929 67.5858 12.8756C67.8683 13.1583 68.1975 13.3791 68.5745 13.5378C68.9515 13.6979 69.3567 13.7766 69.7918 13.7766H76.0266C77.3161 13.7766 78.5284 14.0193 79.6656 14.5047C80.8027 14.99 81.7941 15.6561 82.6423 16.5029C83.4904 17.3497 84.1551 18.3424 84.6405 19.4796C85.1258 20.6169 85.3685 21.8304 85.3685 23.1187C85.3685 24.4081 85.1258 25.6178 84.6405 26.7471C84.1551 27.8766 83.489 28.8654 82.6423 29.7123C81.7955 30.5591 80.8027 31.2289 79.6656 31.7221C78.5284 32.2153 77.3149 32.4605 76.0266 32.4605H62.1874V26.2257H76.0266C76.4617 26.2257 76.8669 26.1456 77.2439 25.9869C77.6209 25.8281 77.9501 25.6061 78.2327 25.3247C78.5154 25.0419 78.7361 24.7127 78.8948 24.3359C79.0536 23.959 79.1337 23.5535 79.1337 23.1187C79.1337 22.6836 79.0536 22.2782 78.8948 21.9014C78.7349 21.5244 78.514 21.1952 78.2327 20.9125C77.9501 20.6298 77.6209 20.4091 77.2439 20.2503C76.8669 20.0915 76.4617 20.0115 76.0266 20.0115H69.7918C68.5023 20.0115 67.2927 19.7649 66.1632 19.2731C65.0336 18.7813 64.0449 18.1113 63.1981 17.2632C62.3514 16.4164 61.6801 15.4238 61.1881 14.2865C60.6952 13.1519 60.4499 11.9384 60.4499 10.6489ZM114.329 29.2682C112.881 30.5139 111.258 31.4704 109.462 32.1364C107.667 32.8026 105.805 33.1356 103.879 33.1356C102.403 33.1356 100.979 32.9432 99.6105 32.56C98.2422 32.1765 96.9604 31.6331 95.7651 30.9308C94.5698 30.2287 93.4804 29.3844 92.4955 28.3994C91.5103 27.4145 90.6662 26.3251 89.9641 25.1296C89.2618 23.9343 88.7184 22.6525 88.3349 21.2842C87.9515 19.9159 87.7593 18.4921 87.7593 17.0154C87.7593 15.5386 87.9515 14.111 88.3349 12.7349C88.7184 11.3589 89.2618 10.0732 89.9641 8.87912C90.6662 7.68379 91.5091 6.59431 92.4955 5.60938C93.4804 4.62446 94.5698 3.78152 95.7651 3.078C96.9604 2.37578 98.2422 1.83233 99.6105 1.44895C100.979 1.06556 102.403 0.873226 103.879 0.873226C105.805 0.873226 107.667 1.2024 109.462 1.86202C111.258 2.52165 112.881 3.48076 114.329 4.74064L111.027 10.1726C110.114 9.18764 109.035 8.4312 107.789 7.90195C106.544 7.37397 105.24 7.10936 103.879 7.10936C102.503 7.10936 101.214 7.3701 100.012 7.89162C98.809 8.41313 97.7595 9.11923 96.8623 10.0099C95.964 10.9006 95.2552 11.9514 94.7338 13.1596C94.2122 14.3691 93.9514 15.6548 93.9514 17.0154C93.9514 18.3772 94.2122 19.6552 94.7338 20.8505C95.2552 22.0458 95.964 23.0914 96.8623 23.9898C97.7607 24.8884 98.8102 25.597 100.012 26.1186C101.214 26.64 102.503 26.9008 103.879 26.9008C105.24 26.9008 106.544 26.6362 107.789 26.1081C109.035 25.5802 110.114 24.8224 111.027 23.8375L114.329 29.2682ZM142.507 32.4617H136.272V26.2269H123.801V32.4617H117.587V13.7779C117.587 12.0546 117.912 10.4359 118.564 8.92172C119.216 7.40883 120.103 6.08701 121.226 4.9562C122.348 3.8267 123.667 2.93603 125.18 2.28413C126.693 1.63225 128.311 1.30695 130.036 1.30695C131.759 1.30695 133.378 1.63225 134.892 2.28413C136.405 2.93603 137.727 3.8267 138.858 4.9562C139.987 6.0857 140.878 7.40754 141.53 8.92172C142.182 10.4359 142.507 12.0546 142.507 13.7779V32.4617ZM136.272 20.0128V13.7779C136.272 12.9234 136.109 12.1153 135.783 11.355C135.458 10.5947 135.012 9.93245 134.447 9.36706C133.881 8.80167 133.219 8.35633 132.459 8.03102C131.699 7.70573 130.891 7.54179 130.036 7.54179C129.182 7.54179 128.373 7.70444 127.613 8.03102C126.853 8.35633 126.191 8.80167 125.625 9.36706C125.06 9.93245 124.614 10.5947 124.289 11.355C123.964 12.1153 123.8 12.9234 123.8 13.7779V20.0128H136.272ZM172.837 32.4617H166.167L154.153 11.9526V32.4617H147.918V1.30695H154.588L166.602 21.838V1.30695H172.837V32.4617Z" fill="#00E8B5"/>
</g>
<defs>
<clipPath id="clip0_1_113">
<rect width="34.2895" height="32.2725" fill="white" transform="translate(0.462677 0.86377)"/>
</clipPath>
</defs>
</svg>
